<svg width="29" height="30" viewBox="0 0 29 30" fill="none" xmlns="http://www.w3.org/2000/svg">
<path d="M21.8369 4.86883C20.5802 4.41472 19.1665 4.10144 17.5995 3.92325V0.73584H11.1706V3.92325C9.60356 4.10144 8.18982 4.41472 6.93315 4.86883C4.86809 5.61611 3.29343 6.69678 2.21683 8.1166C1.13641 9.53642 0.596191 11.2437 0.596191 13.2412V17.4805C0.596191 19.478 1.13641 21.1853 2.21683 22.6051C3.29726 24.0249 4.86809 25.1084 6.93315 25.8528C8.18982 26.307 9.60356 26.6202 11.1706 26.7984V29.9858H17.5995V26.7984C19.1665 26.6202 20.5802 26.307 21.8369 25.8528C23.9019 25.1084 25.4728 24.0249 26.5532 22.6051C27.6336 21.1853 28.1738 19.478 28.1738 17.4805V13.2412C28.1738 11.2465 27.6336 9.53642 26.5532 8.1166C25.4728 6.69965 23.9019 5.61611 21.8369 4.86883ZM8.94075 20.941C7.6611 20.1247 7.02127 18.9722 7.02127 17.4805V13.2412C7.02127 11.7495 7.6611 10.597 8.94075 9.78072C9.55759 9.38697 10.3009 9.09093 11.1706 8.88687V21.8377C10.3009 21.6336 9.55759 21.3347 8.94075 20.941ZM21.7449 17.4805C21.7449 18.9722 21.1051 20.1247 19.8255 20.941C19.2086 21.3347 18.4653 21.6308 17.5956 21.8348V8.88399C18.4615 9.08805 19.2086 9.38409 19.8255 9.77785C21.1051 10.5941 21.7449 11.7495 21.7449 13.2383V17.4805Z" fill="white"/>
</svg>
