<svg width="77" height="33" viewBox="0 0 77 33" fill="none" xmlns="http://www.w3.org/2000/svg">
<path d="M7.83025 14.7519H4.59459V4.5H0.5V28.5H4.59459V18.597H7.83025V28.5H11.9248V4.5H7.83025V14.7519Z" fill="#282827"/>
<path d="M29.2827 7.89117C28.4905 7.51857 27.5992 7.26152 26.6114 7.11531V4.5H22.5584V7.11531C21.5706 7.26152 20.6793 7.51857 19.8871 7.89117C18.5852 8.50432 17.5925 9.39103 16.9138 10.556C16.2327 11.721 15.8921 13.1218 15.8921 14.7608V18.2392C15.8921 19.8782 16.2327 21.279 16.9138 22.444C17.5949 23.609 18.5852 24.498 19.8871 25.1088C20.6793 25.4814 21.5706 25.7385 22.5584 25.8847V28.5H26.6114V25.8847C27.5992 25.7385 28.4905 25.4814 29.2827 25.1088C30.5846 24.498 31.5749 23.609 32.256 22.444C32.9371 21.279 33.2777 19.8782 33.2777 18.2392V14.7608C33.2777 13.1242 32.9371 11.721 32.256 10.556C31.5749 9.39339 30.5846 8.50432 29.2827 7.89117ZM21.1527 21.0786C20.346 20.4088 19.9426 19.4632 19.9426 18.2392V14.7608C19.9426 13.5368 20.346 12.5912 21.1527 11.9214C21.5416 11.5984 22.0101 11.3555 22.5584 11.188V21.8143C22.0101 21.6469 21.5416 21.4016 21.1527 21.0786ZM29.2248 18.2392C29.2248 19.4632 28.8214 20.4088 28.0147 21.0786C27.6258 21.4016 27.1572 21.6445 26.609 21.812V11.1857C27.1548 11.3531 27.6258 11.596 28.0147 11.9191C28.8214 12.5888 29.2248 13.5368 29.2248 14.7584V18.2392Z" fill="#282827"/>
<rect x="40.1567" y="0.5" width="36.3987" height="32" rx="12" fill="#282827"/>
<path d="M52.1306 28.5H48.1567V4.5H52.1306V28.5Z" fill="white"/>
<path d="M68.5555 16.4663C68.5555 20.882 68.4719 24.2528 67.0786 26.1742C66.1869 27.4213 64.9608 28.5 62.7316 28.5H57.1306V4.5H62.7316C64.9608 4.5 66.1869 5.57865 67.0786 6.82584C68.4719 8.74719 68.5555 12.0506 68.5555 16.4663ZM64.5986 16.4663C64.5986 13.8034 64.5986 10.9719 64.1248 9.85955C63.8741 9.25281 63.3725 8.81461 62.648 8.81461H61.0875V24.1854H62.648C63.3725 24.1854 63.8741 23.7472 64.1248 23.1404C64.5986 22.0281 64.5986 19.1292 64.5986 16.4663Z" fill="white"/>
</svg>
