<svg width="616" height="225" viewBox="0 0 616 225" fill="none" xmlns="http://www.w3.org/2000/svg">
  <path
    d="M49.7239 144.936C46.782 143.504 43.4725 142.517 39.8042 141.955V131.908H24.7543V141.955C21.086 142.517 17.7765 143.504 14.8347 144.936C10.0004 147.291 6.31415 150.697 3.79388 155.173C1.26463 159.648 0 165.029 0 171.325V184.688C0 190.984 1.26463 196.365 3.79388 200.841C6.32312 205.316 10.0004 208.731 14.8347 211.078C17.7765 212.509 21.086 213.496 24.7543 214.058V224.105H39.8042V214.058C43.4725 213.496 46.782 212.509 49.7239 211.078C54.5581 208.731 58.2354 205.316 60.7646 200.841C63.2939 196.365 64.5585 190.984 64.5585 184.688V171.325C64.5585 165.038 63.2939 159.648 60.7646 155.173C58.2354 150.706 54.5581 147.291 49.7239 144.936ZM19.5344 195.595C16.5387 193.022 15.0409 189.39 15.0409 184.688V171.325C15.0409 166.624 16.5387 162.991 19.5344 160.418C20.9784 159.177 22.7184 158.244 24.7543 157.6V198.422C22.7184 197.779 20.9784 196.836 19.5344 195.595ZM49.5086 184.688C49.5086 189.39 48.0108 193.022 45.0152 195.595C43.5712 196.836 41.8312 197.769 39.7952 198.413V157.591C41.8222 158.235 43.5712 159.168 45.0152 160.409C48.0108 162.982 49.5086 166.624 49.5086 171.316V184.688Z"
    fill="white" />
  <path
    d="M130.842 137.302C127.73 135.752 123.99 134.973 119.622 134.973H111.613H103.603H96.5629V224.09H111.613V189.519H119.622C123.954 189.519 127.667 188.749 130.788 187.218C133.901 185.687 136.277 183.459 137.919 180.542C139.56 177.625 140.376 174.1 140.376 169.969V154.949C140.376 150.746 139.569 147.131 137.946 144.132C136.322 141.134 133.954 138.86 130.842 137.302ZM125.138 167.641C125.138 169.154 124.896 170.459 124.411 171.564C123.927 172.669 123.237 173.503 122.349 174.073C121.461 174.644 120.411 174.934 119.192 174.934H111.604V149.559H119.192C120.447 149.559 121.514 149.858 122.411 150.447C123.299 151.035 123.981 151.905 124.447 153.056C124.914 154.197 125.147 155.565 125.147 157.16V167.641H125.138Z"
    fill="white" />
  <path
    d="M209.265 136.499C205.884 134.869 201.83 134.044 197.094 134.044C192.358 134.044 188.304 134.86 184.932 136.499C181.551 138.13 178.977 140.522 177.192 143.665C175.407 146.818 174.519 150.596 174.519 155.008V204.037C174.519 208.448 175.407 212.217 177.192 215.343C178.968 218.468 181.551 220.86 184.932 222.518C188.304 224.175 192.367 225 197.094 225C201.83 225 205.884 224.175 209.265 222.518C212.646 220.86 215.22 218.468 217.005 215.343C218.781 212.217 219.678 208.448 219.678 204.037V155.008C219.678 150.596 218.79 146.818 217.005 143.665C215.22 140.522 212.637 138.139 209.265 136.499ZM204.44 202.08C204.44 203.72 204.162 205.106 203.588 206.247C203.022 207.389 202.179 208.267 201.067 208.883C199.955 209.499 198.628 209.798 197.094 209.798C195.56 209.798 194.242 209.49 193.148 208.883C192.053 208.267 191.228 207.389 190.663 206.247C190.098 205.106 189.811 203.71 189.811 202.08V156.847C189.811 155.252 190.098 153.884 190.663 152.743C191.228 151.601 192.062 150.723 193.148 150.106C194.242 149.49 195.551 149.182 197.094 149.182C198.628 149.182 199.955 149.49 201.067 150.106C202.179 150.723 203.022 151.601 203.588 152.743C204.153 153.884 204.44 155.252 204.44 156.847V202.08Z"
    fill="white" />
  <path
    d="M281.054 173.031H269.161V134.973H254.111V224.09H269.161V187.318H281.054V224.09H296.104V134.973H281.054V173.031Z"
    fill="white" />
  <path d="M330.532 149.559H345.098V224.09H360.148V149.559H374.704V134.973H330.532V149.559Z"
    fill="white" />
  <path
    d="M26.9427 56.8803H15.0499V18.813H0V107.93H15.0499V71.1578H26.9427V107.93H41.9926V18.813H26.9427V56.8803Z"
    fill="white" />
  <path
    d="M109.914 107.938H124.838L103.779 18.8214H93.2226L72.1725 107.938H87.0968L89.8054 94.0862H107.214L109.914 107.938ZM92.5858 79.8631L98.5143 49.5234L104.443 79.8631H92.5858Z"
    fill="white" />
  <path
    d="M190.561 21.1413C187.448 19.5922 183.708 18.813 179.34 18.813H171.322H163.313H156.272V107.93H171.322V73.3683H179.331C183.663 73.3683 187.377 72.5982 190.498 71.0672C193.61 69.5362 195.987 67.3076 197.628 64.3905C199.269 61.4734 200.086 57.9493 200.086 53.8182V38.7979C200.086 34.5853 199.278 30.9797 197.655 27.9811C196.041 24.9734 193.673 22.6995 190.561 21.1413ZM184.856 51.4809C184.856 52.9939 184.614 54.2984 184.13 55.4036C183.645 56.5089 182.955 57.3423 182.067 57.9131C181.179 58.4838 180.13 58.7737 178.91 58.7737H171.322V33.4076H178.91C180.166 33.4076 181.233 33.7066 182.13 34.2954C183.018 34.8843 183.699 35.754 184.166 36.9045C184.632 38.046 184.865 39.4139 184.865 41.0084V51.4809H184.856Z"
    fill="white" />
  <path
    d="M268.954 20.3475C265.573 18.7168 261.519 17.8924 256.783 17.8924C252.048 17.8924 247.994 18.7078 244.621 20.3475C241.24 21.9782 238.666 24.3698 236.881 27.5225C235.105 30.6661 234.208 34.4438 234.208 38.8647V87.8937C234.208 92.3056 235.096 96.0743 236.881 99.1997C238.657 102.325 241.24 104.717 244.621 106.375C247.994 108.033 252.057 108.857 256.783 108.857C261.519 108.857 265.573 108.033 268.954 106.375C272.335 104.717 274.909 102.325 276.694 99.1997C278.47 96.0743 279.367 92.3056 279.367 87.8937V38.8557C279.367 34.4438 278.479 30.6661 276.694 27.5134C274.909 24.3698 272.335 21.9782 268.954 20.3475ZM264.129 85.9278C264.129 87.5676 263.842 88.9537 263.277 90.0951C262.712 91.2366 261.869 92.1154 260.756 92.7314C259.644 93.3474 258.317 93.6464 256.783 93.6464C255.25 93.6464 253.931 93.3384 252.837 92.7314C251.743 92.1154 250.918 91.2366 250.352 90.0951C249.787 88.9537 249.5 87.5585 249.5 85.9278V40.6947C249.5 39.1003 249.778 37.7323 250.352 36.5908C250.918 35.4494 251.752 34.5706 252.837 33.9546C253.931 33.3386 255.241 33.0305 256.783 33.0305C258.317 33.0305 259.644 33.3386 260.756 33.9546C261.869 34.5616 262.712 35.4494 263.277 36.5908C263.842 37.7323 264.129 39.1003 264.129 40.6947V85.9278Z"
    fill="white" />
  <path
    d="M357.858 93.344V18.813H349.974H342.817H332.745H329.83H318.969V75.1439C318.969 81.1864 318.359 85.7342 317.148 88.7781C315.937 91.8221 314.116 93.344 311.686 93.344H310.296H308.654V107.93V119.399H322.493V107.93H342.826H351.14V119.399H364.97V93.344H360.54H357.858ZM329.184 93.344C329.848 91.8945 330.413 90.3182 330.861 88.5969C332.117 83.7955 332.745 78.0247 332.745 71.2846V33.4076H342.817V93.3531H329.184V93.344Z"
    fill="white" />
  <path
    d="M424.822 56.8803H412.93V18.813H397.88V107.93H412.93V71.1578H424.822V107.93H439.863V18.813H424.822V56.8803Z"
    fill="white" />
  <path d="M536.077 18.813H521.027V107.93H536.077V18.813Z" fill="white" />
  <path
    d="M508.11 55.7479C505.159 54.1353 501.598 53.329 497.428 53.329H490.566V18.813H475.516V107.93H483.221H490.557H497.419C501.544 107.93 505.096 107.141 508.074 105.574C511.051 103.998 513.312 101.715 514.872 98.7072C516.433 95.6995 517.204 92.0939 517.204 87.8903V73.794C517.204 69.4999 516.424 65.8218 514.872 62.7598C513.321 59.6977 511.06 57.3604 508.11 55.7479ZM502.163 84.3391C502.163 86.2234 501.858 87.836 501.248 89.1858C500.647 90.5357 499.786 91.5684 498.665 92.2841C497.553 92.9998 496.226 93.3531 494.692 93.3531H490.566V67.9145H494.692C496.226 67.9145 497.562 68.286 498.701 69.0198C499.831 69.7536 500.692 70.8226 501.275 72.2087C501.858 73.6038 502.154 75.2707 502.154 77.2366V84.3391H502.163Z"
    fill="white" />
  <path
    d="M603.171 18.813L584.238 74.0749V18.813H570.524V107.875H582.659L601.467 52.9304V107.875H615.19V18.813H603.171Z"
    fill="white" />
  <path d="M600.887 0H586.956V14.0698H600.887V0Z" fill="white" />
</svg>
