<svg width="58" height="39" viewBox="0 0 58 39" fill="none" xmlns="http://www.w3.org/2000/svg">
<path d="M0.608643 14.625C0.608643 6.54784 9.07952 0 19.5289 0H39.0798C49.5291 0 58 6.54784 58 14.625V24.375C58 32.4522 49.5291 39 39.0798 39H19.5289C9.0795 39 0.608643 32.4522 0.608643 24.375V14.625Z" fill="white"/>
<path d="M19.4876 34.125H13.2221V4.875H19.4876V34.125Z" fill="#AD2225"/>
<path d="M45.3845 19.4589C45.3845 24.8406 45.2527 28.9487 43.0559 31.2904C41.65 32.8104 39.7168 34.125 36.202 34.125H27.3711V4.875H36.202C39.7168 4.875 41.65 6.18961 43.0559 7.70962C45.2527 10.0513 45.3845 14.0772 45.3845 19.4589ZM39.1457 19.4589C39.1457 16.2135 39.1457 12.7626 38.3988 11.407C38.0034 10.6675 37.2125 10.1334 36.0702 10.1334H33.6099V28.8666H36.0702C37.2125 28.8666 38.0034 28.3325 38.3988 27.593C39.1457 26.2374 39.1457 22.7044 39.1457 19.4589Z" fill="#AD2225"/>
</svg>
